<?xml version="1.0" encoding="UTF-8" standalone="no"?>
<svg
   xmlns:dc="http://purl.org/dc/elements/1.1/"
   xmlns:cc="http://creativecommons.org/ns#"
   xmlns:rdf="http://www.w3.org/1999/02/22-rdf-syntax-ns#"
   xmlns:svg="http://www.w3.org/2000/svg"
   xmlns="http://www.w3.org/2000/svg"
   xmlns:sodipodi="http://sodipodi.sourceforge.net/DTD/sodipodi-0.dtd"
   xmlns:inkscape="http://www.inkscape.org/namespaces/inkscape"
   version="1.0"
   width="100"
   height="100"
   viewBox="0 0 80 80"
   preserveAspectRatio="xMidYMid meet"
   id="svg2"
   inkscape:version="0.48.4 r9939"
   sodipodi:docname="Fox_News_Channel_logo.svg">
  <title
     id="title3092">FOX News Channel logo</title>
  <defs
     id="defs30" />
  <sodipodi:namedview
     pagecolor="#ffffff"
     bordercolor="#666666"
     borderopacity="1"
     objecttolerance="10"
     gridtolerance="10"
     guidetolerance="10"
     inkscape:pageopacity="0"
     inkscape:pageshadow="2"
     inkscape:window-width="1600"
     inkscape:window-height="844"
     id="namedview28"
     showgrid="false"
     showguides="true"
     inkscape:guide-bbox="true"
     inkscape:showpageshadow="false"
     inkscape:zoom="1"
     inkscape:cx="66.02074"
     inkscape:cy="82.538891"
     inkscape:window-x="-4"
     inkscape:window-y="-4"
     inkscape:window-maximized="1"
     inkscape:current-layer="svg2" />
  <metadata
     id="metadata4">
Created by potrace 1.12, written by Peter Selinger 2001-2015
<rdf:RDF>
  <cc:Work
     rdf:about="">
    <dc:format>image/svg+xml</dc:format>
    <dc:type
       rdf:resource="http://purl.org/dc/dcmitype/StillImage" />
    <dc:title>FOX News Channel logo</dc:title>
  </cc:Work>
</rdf:RDF>
</metadata>
  <rect
     style="fill:#ffffff;fill-opacity:1"
     id="rect3009"
     width="79.049683"
     height="67.388687"
     x="0.64243573"
     y="0.3034907" />
  <g
     transform="matrix(0.00642817,0,0,-0.00680767,-13.577814,86.846085)"
     id="g6"
     style="fill:#000080;stroke:none">
    <path
       d="m 2150,12095 c 0,-594 1,-645 17,-645 9,0 93,24 187,54 342,109 639,188 964,255 196,41 656,121 697,121 14,0 26,7 29,18 13,45 166,797 166,818 l 0,24 -1030,0 -1030,0 0,-645 z"
       id="path10"
       inkscape:connector-curvature="0"
       style="fill:#000080" />
    <path
       d="m 5595,12728 c -64,-178 -248,-718 -249,-733 -1,-19 7,-20 284,-26 288,-7 437,-16 721,-45 85,-9 165,-14 177,-12 18,2 55,71 212,400 105,218 190,404 190,412 0,14 -68,16 -665,16 -523,0 -667,-3 -670,-12 z"
       id="path12"
       inkscape:connector-curvature="0"
       style="fill:#000080" />
    <path
       d="m 8165,12218 c -182,-286 -331,-529 -333,-539 -3,-19 -7,-18 198,-74 259,-71 644,-200 920,-308 614,-240 1337,-612 1845,-950 196,-131 395,-271 395,-279 0,-4 -13,-8 -28,-8 -19,0 -60,23 -123,67 -860,609 -1904,1111 -2904,1396 -288,82 -333,93 -350,82 -8,-6 -156,-233 -328,-505 -172,-272 -389,-615 -482,-762 l -169,-268 -278,0 -278,0 0,-440 0,-439 -321,-508 c -177,-279 -442,-699 -590,-933 -148,-234 -410,-648 -582,-920 l -313,-495 -252,-3 -252,-2 0,-396 0,-396 -387,-611 c -212,-337 -579,-916 -813,-1287 -235,-371 -446,-704 -468,-740 -23,-36 -42,-71 -42,-77 0,-10 1238,-13 6155,-13 l 6155,0 0,1484 0,1485 -92,208 c -51,114 -139,300 -195,413 -96,192 -109,232 -71,217 16,-5 170,-305 269,-519 34,-76 69,-138 76,-138 11,0 13,591 13,3390 l 0,3390 -3023,0 -3022,0 -330,-522 z m 185,-2303 c 11,-14 52,-505 62,-745 l 3,-85 -552,-3 -553,-2 0,-220 0,-220 444,0 c 363,0 446,-2 455,-14 8,-9 10,-129 9,-422 l -3,-409 -457,-3 -458,-2 -2,-513 -3,-512 -439,-3 c -316,-1 -443,1 -452,9 -12,10 -14,267 -14,1579 0,861 3,1570 7,1573 3,4 442,7 973,7 848,0 969,-2 980,-15 z m 1915,-10 c 425,-68 831,-314 1068,-645 77,-109 193,-332 231,-447 103,-310 106,-639 9,-948 -131,-415 -426,-760 -818,-955 -157,-78 -277,-120 -440,-152 -157,-32 -434,-31 -584,1 -300,64 -563,192 -786,381 -249,212 -438,540 -517,896 -32,147 -32,445 0,594 107,495 419,898 871,1124 297,149 640,203 966,151 z m 2166,-305 c 145,-242 200,-325 214,-325 14,0 66,81 208,328 l 189,327 484,0 c 300,0 485,-4 489,-10 3,-5 -190,-346 -430,-757 -241,-412 -434,-754 -432,-763 2,-9 219,-375 481,-813 262,-438 476,-801 476,-807 0,-7 -155,-10 -488,-10 l -487,0 -233,391 c -156,260 -238,389 -248,387 -8,-2 -115,-176 -238,-388 l -224,-385 -478,-3 c -263,-1 -481,1 -485,5 -3,5 39,87 96,183 377,646 819,1418 823,1436 3,15 -132,249 -442,769 -245,411 -443,751 -440,756 3,5 209,8 487,7 l 482,-3 196,-325 z m 879,-3310 c 298,-37 546,-181 698,-407 48,-71 142,-258 142,-283 0,-12 -69,-40 -300,-118 l -299,-101 -32,65 c -43,88 -123,167 -197,194 -71,27 -202,37 -270,21 -70,-17 -137,-62 -160,-108 -42,-83 -36,-181 13,-233 39,-41 91,-60 345,-130 124,-34 268,-75 320,-92 271,-87 452,-215 550,-392 139,-249 149,-575 26,-842 -62,-134 -135,-227 -258,-328 -176,-145 -372,-223 -620,-246 -352,-32 -710,77 -950,289 -94,83 -194,237 -257,398 -42,106 -58,168 -44,176 4,3 152,37 327,76 314,70 346,74 346,40 0,-4 9,-33 21,-64 14,-38 41,-78 82,-121 98,-106 185,-137 372,-137 120,1 173,14 232,59 57,43 81,118 67,211 -5,39 -15,57 -53,94 -51,51 -56,53 -377,143 -368,102 -624,235 -753,391 -193,234 -220,615 -65,930 79,161 236,315 409,400 200,98 461,142 685,115 z m -8414,-98 c 6,-4 170,-272 364,-597 478,-799 503,-839 523,-843 16,-3 17,42 19,720 l 3,723 341,3 c 279,2 343,0 353,-11 8,-11 10,-387 9,-1443 l -3,-1429 -330,-3 c -255,-2 -334,1 -346,10 -14,11 -152,242 -874,1458 -69,116 -129,206 -138,208 -16,3 -17,-60 -19,-830 l -3,-833 -350,-5 c -192,-3 -354,-3 -359,1 -9,8 -9,2856 0,2871 6,10 795,10 810,0 z m 3673,-6 c 8,-9 11,-104 9,-327 l -3,-314 -572,-3 -573,-2 0,-225 0,-225 473,-2 472,-3 0,-295 0,-295 -472,-3 -473,-2 0,-260 0,-260 574,0 c 473,0 576,-2 585,-14 8,-9 11,-104 9,-327 l -3,-314 -929,-3 c -678,-1 -932,1 -942,9 -12,10 -14,248 -14,1439 0,784 3,1430 7,1433 3,4 419,7 923,7 765,0 919,-2 929,-14 z m 900,0 c 6,-7 45,-175 85,-372 164,-792 268,-1289 272,-1293 20,-21 39,58 148,610 66,332 140,708 165,834 l 46,230 296,3 c 229,2 299,-1 306,-10 6,-7 41,-157 78,-333 37,-176 83,-390 101,-475 118,-556 174,-825 174,-832 0,-4 8,-8 18,-8 15,0 29,52 96,368 44,202 96,444 117,537 20,94 63,292 94,440 32,149 61,280 66,293 l 9,22 274,0 c 207,0 276,-3 284,-13 7,-8 5,-36 -9,-92 -10,-44 -60,-253 -109,-465 -49,-212 -119,-509 -154,-660 -36,-151 -137,-582 -225,-958 -89,-376 -163,-688 -166,-693 -4,-5 -139,-9 -321,-9 l -314,0 -10,23 c -5,12 -59,263 -120,557 -129,623 -209,1006 -217,1038 -3,12 -11,22 -19,22 -7,0 -16,-10 -19,-22 -7,-30 -325,-1608 -325,-1614 0,-2 -146,-4 -324,-4 -247,0 -326,3 -334,13 -5,6 -55,208 -111,447 -55,239 -121,523 -146,630 -25,107 -91,389 -146,625 -55,237 -138,593 -185,793 -47,199 -82,367 -79,372 4,6 136,10 349,10 279,0 346,-3 355,-14 z"
       id="path14"
       inkscape:connector-curvature="0"
       style="fill:#000080" />
    <path
       d="m 9895,9306 c -58,-27 -118,-89 -149,-155 -21,-46 -21,-51 -21,-796 0,-860 -5,-806 90,-893 66,-60 116,-76 222,-70 122,7 201,57 250,156 l 28,57 4,743 c 4,843 8,793 -78,886 -65,69 -126,96 -221,96 -58,0 -87,-6 -125,-24 z"
       id="path16"
       inkscape:connector-curvature="0"
       style="fill:#000080" />
    <path
       d="m 5310,11907 c 0,-2 -50,-147 -111,-323 -230,-661 -446,-1285 -614,-1769 -95,-275 -248,-716 -340,-980 -92,-264 -209,-601 -260,-750 -51,-148 -186,-538 -300,-865 -206,-595 -387,-1116 -720,-2075 -97,-280 -231,-665 -297,-855 -66,-190 -182,-525 -258,-745 -76,-220 -161,-465 -189,-544 -28,-79 -51,-155 -51,-168 0,-49 29,-19 72,75 25,53 180,376 343,717 164,341 392,818 507,1060 476,996 559,1170 878,1835 183,382 381,796 440,920 59,124 259,542 445,930 186,388 384,802 440,920 56,118 353,738 659,1377 306,640 556,1167 556,1172 0,24 -664,71 -1017,71 -101,0 -183,-1 -183,-3 z"
       id="path18"
       inkscape:connector-curvature="0"
       style="fill:#000080" />
    <path
       d="m 3840,11794 c -540,-88 -1100,-224 -1555,-377 l -130,-44 -3,-4186 c -2,-3474 0,-4187 11,-4187 10,0 29,74 65,248 28,136 94,450 146,697 52,248 115,547 140,665 25,118 102,485 171,815 70,330 164,780 210,1000 46,220 120,571 164,780 44,209 138,659 210,1000 123,584 264,1258 605,2883 81,381 146,702 146,712 0,24 4,24 -180,-6 z"
       id="path20"
       inkscape:connector-curvature="0"
       style="fill:#000080" />
    <path
       d="m 2150,1805 0,-775 6195,0 6195,0 0,775 0,775 -6195,0 -6195,0 0,-775 z m 2608,453 c 8,-8 12,-63 12,-180 0,-190 0,-190 72,-138 50,37 147,68 237,76 131,12 296,-36 353,-104 49,-59 53,-86 53,-377 l 0,-270 -164,-3 c -112,-2 -168,1 -177,9 -11,9 -14,61 -14,260 l 0,249 -29,32 c -28,32 -33,33 -114,36 -68,3 -93,0 -130,-16 -77,-34 -81,-49 -87,-327 l -5,-240 -159,-3 c -108,-2 -163,1 -172,9 -12,9 -14,96 -14,499 0,267 3,490 7,493 12,13 318,8 331,-5 z m 9451,-2 c 8,-9 10,-149 9,-502 l -3,-489 -159,-3 c -108,-2 -163,1 -172,9 -12,9 -14,96 -14,499 0,267 3,490 7,493 3,4 77,7 163,7 121,0 160,-3 169,-14 z M 3250,2005 c 158,-32 256,-90 306,-180 18,-32 31,-62 28,-67 -3,-4 -77,-8 -165,-8 l -160,0 -47,51 c -46,49 -49,51 -112,56 -165,13 -240,-61 -240,-236 0,-86 15,-126 63,-168 82,-72 268,-49 312,38 l 16,29 159,0 c 94,0 161,-4 165,-10 10,-16 -27,-82 -71,-126 -95,-95 -284,-150 -484,-140 -243,11 -407,93 -483,241 -28,53 -32,69 -32,145 0,66 5,95 22,132 26,57 93,132 153,170 128,82 373,113 570,73 z m 3801,-9 c 72,-16 174,-62 201,-93 10,-10 27,-41 40,-68 21,-47 23,-66 26,-287 4,-217 5,-238 23,-254 10,-9 19,-21 19,-26 0,-4 -74,-8 -164,-8 -159,0 -165,1 -180,22 -9,12 -16,30 -16,40 0,25 -12,23 -94,-17 -164,-81 -356,-86 -504,-14 -164,80 -160,249 7,333 59,30 156,51 358,76 201,25 213,29 213,85 0,64 -23,79 -129,83 -113,5 -163,-9 -198,-53 l -28,-35 -147,0 c -90,0 -149,4 -153,10 -10,16 41,96 79,125 66,50 141,73 331,99 53,8 248,-4 316,-18 z m 1959,13 c 60,-7 104,-20 150,-42 58,-29 68,-38 95,-91 l 30,-60 0,-275 0,-276 -159,-3 c -100,-2 -163,1 -171,8 -10,8 -14,74 -16,260 l -4,250 -32,32 c -27,27 -41,32 -92,36 -121,9 -195,-20 -224,-87 -6,-15 -13,-124 -16,-261 l -6,-235 -161,-3 c -128,-2 -164,0 -173,11 -8,11 -11,112 -9,368 l 3,354 159,3 c 108,2 163,-1 172,-9 8,-6 14,-29 14,-50 0,-46 11,-48 52,-14 46,39 98,62 174,79 86,18 109,19 214,5 z m 1968,-10 c 105,-22 179,-85 202,-170 6,-22 9,-145 8,-301 l -3,-263 -159,-3 c -105,-2 -163,1 -172,9 -10,8 -14,68 -16,265 l -3,254 -28,27 c -26,27 -32,28 -120,28 -106,0 -147,-14 -180,-59 -21,-29 -22,-43 -27,-276 l -5,-245 -161,-3 c -128,-2 -164,0 -173,11 -8,11 -11,112 -9,368 l 3,354 154,3 c 104,2 158,-1 167,-9 8,-6 14,-29 14,-50 0,-45 10,-48 54,-14 47,36 134,73 196,84 60,11 186,6 258,-10 z m 1770,6 c 90,-19 222,-78 275,-125 54,-47 107,-161 110,-235 l 2,-60 -384,-3 -384,-2 6,-46 c 5,-52 42,-98 94,-120 45,-19 193,-18 241,2 20,8 49,26 63,40 25,24 28,25 174,22 107,-2 150,-6 152,-15 7,-21 -98,-116 -160,-146 -110,-53 -197,-70 -357,-70 -163,0 -250,17 -359,72 -112,57 -167,124 -197,242 -19,74 -13,131 22,209 53,117 169,197 339,235 84,18 270,18 363,0 z"
       id="path22"
       inkscape:connector-curvature="0"
       style="fill:#ff0000" />
    <path
       d="m 6934,1610 c -11,-4 -67,-15 -125,-24 -167,-27 -199,-44 -199,-109 0,-40 15,-64 52,-83 46,-24 188,-15 245,14 61,32 73,54 73,139 0,76 -3,81 -46,63 z"
       id="path24"
       inkscape:connector-curvature="0"
       style="fill:#ff0000" />
    <path
       d="m 12503,1871 c -57,-15 -97,-45 -120,-91 -43,-84 -52,-80 197,-80 l 220,0 0,39 c 0,45 -33,92 -83,117 -34,18 -166,27 -214,15 z"
       id="path26"
       inkscape:connector-curvature="0"
       style="fill:#ff0000" />
  </g>
</svg>
